<svg width="800" xmlns="http://www.w3.org/2000/svg" height="800" id="screenshot-fb17a1f9-5fd0-808c-8004-7fa356889e86" viewBox="0 0 800 800" xmlns:xlink="http://www.w3.org/1999/xlink" fill="none" version="1.1"><g id="shape-fb17a1f9-5fd0-808c-8004-7fa356889e86"><g fill="none"><g class="fills" id="fills-fb17a1f9-5fd0-808c-8004-7fa356889e86"><rect rx="0" ry="0" x="0" y="0" width="800" height="800" transform="matrix(1.000000, 0.000000, 0.000000, 1.000000, 0.000000, 0.000000)" class="frame-background"/></g><g class="frame-children"><g id="shape-fb17a1f9-5fd0-808c-8004-7fa34ca23eb6" rx="0" ry="0"><g id="shape-fb17a1f9-5fd0-808c-8004-7fa34ca23eb7"><defs><linearGradient id="fill-color-gradient-render-3-0" x1="0.8141024888869209" y1="0.11333468759598872" x2="0.8902054992483767" y2="0.7841905779408899" gradientTransform=""><stop offset="0" stop-color="#1a2366" stop-opacity="1"/><stop offset="1" stop-color="#42becd" stop-opacity="1"/></linearGradient><pattern patternUnits="userSpaceOnUse" x="0" y="0" width="800" height="800" patternTransform="matrix(1.000000, 0.000000, 0.000000, 1.000000, 0.000000, 0.000000)" id="fill-0-render-3"><g><rect width="800" height="800" style="fill: url(&quot;#fill-color-gradient-render-3-0&quot;);"/></g></pattern></defs><g class="fills" id="fills-fb17a1f9-5fd0-808c-8004-7fa34ca23eb7"><path d="M400.000,0.000C620.766,0.000,800.000,179.234,800.000,400.000C800.000,620.766,620.766,800.000,400.000,800.000C179.234,800.000,0.000,620.766,0.000,400.000C0.000,179.234,179.234,0.000,400.000,0.000Z" fill="url(#fill-0-render-3)"/></g></g><g id="shape-fb17a1f9-5fd0-808c-8004-7fa34ca23eb8" rx="0" ry="0"><g id="shape-fb17a1f9-5fd0-808c-8004-7fa34ca23eba" rx="0" ry="0" style="fill: rgb(0, 0, 0);"><g id="shape-fb17a1f9-5fd0-808c-8004-7fa34ca23ecb" style="opacity: 1;"><g class="fills" id="fills-fb17a1f9-5fd0-808c-8004-7fa34ca23ecb"><path d="M522.226,98.586C521.084,96.298,448.249,21.803,449.226,21.586C454.640,20.383,506.880,38.188,556.226,70.586C588.909,92.045,625.213,131.444,628.203,134.442C629.213,135.972,629.714,137.645,629.705,139.459C623.110,139.771,576.640,138.568,570.226,137.586C568.013,128.430,525.728,107.115,522.226,98.586ZL522.226,98.586ZL522.226,98.586Z" style="shape-rendering: geometricprecision; text-rendering: geometricprecision; fill-rule: evenodd; clip-rule: evenodd; fill: rgb(233, 201, 110); fill-opacity: 1;"/></g></g></g><g id="shape-fb17a1f9-5fd0-808c-8004-7fa34ca23ebb" rx="0" ry="0" style="fill: rgb(0, 0, 0);"><g id="shape-fb17a1f9-5fd0-808c-8004-7fa34ca23ecc" style="opacity: 1;"><g class="fills" id="fills-fb17a1f9-5fd0-808c-8004-7fa34ca23ecc"><path d="M599.678,151.445C610.024,151.279,631.378,153.505,641.714,154.007C644.176,155.469,646.344,157.308,648.219,159.525C650.500,163.485,653.169,167.163,656.225,170.561C656.715,171.858,656.882,173.197,656.725,174.574C641.043,174.742,612.350,175.023,596.675,174.521C516.226,181.586,526.226,154.586,599.678,151.445ZL599.678,151.445Z" style="shape-rendering: geometricprecision; text-rendering: geometricprecision; fill-rule: evenodd; clip-rule: evenodd; fill: rgb(233, 201, 110); fill-opacity: 1;"/></g></g></g><g id="shape-fb17a1f9-5fd0-808c-8004-7fa34ca23ebc" rx="0" ry="0" style="fill: rgb(0, 0, 0);"><g id="shape-fb17a1f9-5fd0-808c-8004-7fa34ca23ecd" style="opacity: 1;"><g class="fills" id="fills-fb17a1f9-5fd0-808c-8004-7fa34ca23ecd"><path d="M593.673,184.554C614.358,184.387,646.053,188.621,666.732,189.122C668.165,189.589,669.331,190.425,670.235,191.630C672.730,197.306,675.732,202.657,679.242,207.683C680.975,211.164,682.142,214.843,682.745,218.720C654.388,218.887,590.578,221.088,562.226,220.586C558.446,217.666,541.780,210.358,543.226,205.586C519.965,199.023,535.573,189.537,558.226,185.586C570.091,183.517,586.726,184.586,593.673,184.554ZL593.673,184.554ZL593.673,184.554ZM558.226,185.586" style="shape-rendering: geometricprecision; text-rendering: geometricprecision; fill-rule: evenodd; clip-rule: evenodd; fill: rgb(233, 201, 110); fill-opacity: 1;"/></g></g></g><g id="shape-fb17a1f9-5fd0-808c-8004-7fa34ca23ebd" rx="0" ry="0" style="fill: rgb(0, 0, 0);"><g id="shape-fb17a1f9-5fd0-808c-8004-7fa34ca23ece" style="opacity: 1;"><g class="fills" id="fills-fb17a1f9-5fd0-808c-8004-7fa34ca23ece"><path d="M692.752,238.786C693.403,240.727,693.736,242.734,693.753,244.806C665.057,245.140,636.369,244.806,607.688,243.802C607.333,242.777,598.437,245.911,597.458,245.599C596.240,243.023,497.502,239.389,499.226,235.586C528.745,234.419,659.891,233.437,689.750,234.271C691.392,235.404,692.393,236.909,692.752,238.786ZL692.752,238.786Z" style="shape-rendering: geometricprecision; text-rendering: geometricprecision; fill-rule: evenodd; clip-rule: evenodd; fill: rgb(233, 201, 110); fill-opacity: 1;"/></g></g></g><g id="shape-fb17a1f9-5fd0-808c-8004-7fa34ca23ebe" rx="0" ry="0" style="fill: rgb(0, 0, 0);"><g id="shape-fb17a1f9-5fd0-808c-8004-7fa34ca23ecf" style="opacity: 1;"><g class="fills" id="fills-fb17a1f9-5fd0-808c-8004-7fa34ca23ecf"><path d="M526.226,265.586C553.915,265.419,672.072,260.858,699.757,261.360C703.304,266.301,705.306,271.820,705.762,277.915C675.072,277.915,644.383,277.915,613.693,277.915C605.464,278.708,602.761,276.554,597.458,278.206C602.845,273.474,518.497,270.894,526.226,265.586ZL526.226,265.586Z" style="shape-rendering: geometricprecision; text-rendering: geometricprecision; fill-rule: evenodd; clip-rule: evenodd; fill: rgb(233, 201, 110); fill-opacity: 1;"/></g></g></g><g id="shape-fb17a1f9-5fd0-808c-8004-7fa34ca23ebf" rx="0" ry="0" style="fill: rgb(0, 0, 0);"><g id="shape-fb17a1f9-5fd0-808c-8004-7fa34ca23ed0" style="opacity: 1;"><g class="fills" id="fills-fb17a1f9-5fd0-808c-8004-7fa34ca23ed0"><path d="M709.765,305.004C679.407,305.171,645.326,305.295,614.971,304.794C610.746,304.583,604.716,293.929,603.963,293.256C637.321,292.586,674.405,292.797,707.763,293.466C709.448,297.098,710.115,300.944,709.765,305.004ZL709.765,305.004Z" style="shape-rendering: geometricprecision; text-rendering: geometricprecision; fill-rule: evenodd; clip-rule: evenodd; fill: rgb(233, 201, 110); fill-opacity: 1;"/></g></g></g><g id="shape-fb17a1f9-5fd0-808c-8004-7fa34ca23ec0" rx="0" ry="0" style="fill: rgb(0, 0, 0);"><g id="shape-fb17a1f9-5fd0-808c-8004-7fa34ca23ed1" style="opacity: 1;"><g class="fills" id="fills-fb17a1f9-5fd0-808c-8004-7fa34ca23ed1"><path d="M631.145,314.992C654.162,314.992,685.418,314.992,708.434,314.992C709.393,315.481,710.944,317.507,711.947,322.036C713.381,331.561,716.848,342.085,715.748,351.297C690.730,351.297,184.398,363.292,159.380,363.292C159.839,358.927,177.728,352.749,178.451,347.030C178.009,345.690,632.037,315.814,631.145,314.992ZL631.145,314.992Z" style="shape-rendering: geometricprecision; text-rendering: geometricprecision; fill-rule: evenodd; clip-rule: evenodd; fill: rgb(233, 201, 110); fill-opacity: 1;"/></g></g></g><g id="shape-fb17a1f9-5fd0-808c-8004-7fa34ca23ec1" rx="0" ry="0" style="fill: rgb(0, 0, 0);"><g id="shape-fb17a1f9-5fd0-808c-8004-7fa34ca23ed2" style="opacity: 1;"><g class="fills" id="fills-fb17a1f9-5fd0-808c-8004-7fa34ca23ed2"><path d="M634.704,363.644C662.040,365.477,687.730,365.864,715.769,365.704C716.922,376.161,717.089,386.696,716.270,397.308C686.485,398.474,178.267,412.424,148.339,411.593C146.838,410.757,179.626,388.794,179.456,383.418C178.455,383.418,632.703,370.667,634.704,363.644ZL634.704,363.644Z" style="shape-rendering: geometricprecision; text-rendering: geometricprecision; fill-rule: evenodd; clip-rule: evenodd; fill: rgb(233, 201, 110); fill-opacity: 1;"/></g></g></g><g id="shape-fb17a1f9-5fd0-808c-8004-7fa34ca23ec2" rx="0" ry="0" style="fill: rgb(0, 0, 0);"><g id="shape-fb17a1f9-5fd0-808c-8004-7fa34ca23ed3" style="opacity: 1;"><g class="fills" id="fills-fb17a1f9-5fd0-808c-8004-7fa34ca23ed3"><path d="M177.448,420.650C183.584,421.984,642.345,410.348,649.219,410.351C671.883,409.615,694.400,409.949,716.770,411.354C717.229,416.738,716.561,421.922,714.769,426.905C686.082,427.407,192.086,431.886,163.396,431.718C161.753,429.926,175.446,424.501,177.448,420.650ZL177.448,420.650Z" style="shape-rendering: geometricprecision; text-rendering: geometricprecision; fill-rule: evenodd; clip-rule: evenodd; fill: rgb(233, 201, 110); fill-opacity: 1;"/></g></g></g><g id="shape-fb17a1f9-5fd0-808c-8004-7fa34ca23ec3" rx="0" ry="0" style="fill: rgb(0, 0, 0);"><g id="shape-fb17a1f9-5fd0-808c-8004-7fa34ca23ed4" style="opacity: 1;"><g class="fills" id="fills-fb17a1f9-5fd0-808c-8004-7fa34ca23ed4"><path d="M177.448,438.762C205.138,438.595,685.081,435.433,712.767,435.935C714.154,440.914,713.488,445.596,710.766,449.981C682.413,450.483,204.801,453.018,176.444,452.850C178.558,448.056,176.893,444.002,177.448,438.762ZL177.448,438.762Z" style="shape-rendering: geometricprecision; text-rendering: geometricprecision; fill-rule: evenodd; clip-rule: evenodd; fill: rgb(233, 201, 110); fill-opacity: 1;"/></g></g></g><g id="shape-fb17a1f9-5fd0-808c-8004-7fa34ca23ec4" rx="0" ry="0" style="fill: rgb(0, 0, 0);"><g id="shape-fb17a1f9-5fd0-808c-8004-7fa34ca23ed5" style="opacity: 1;"><g class="fills" id="fills-fb17a1f9-5fd0-808c-8004-7fa34ca23ed5"><path d="M492.597,617.982C492.511,618.981,492.850,618.866,493.602,619.540C535.299,620.041,576.997,620.209,618.696,620.041C618.845,621.097,618.679,622.100,618.196,623.051C616.482,624.434,615.147,626.106,614.193,628.068C609.139,631.966,604.636,636.314,600.683,641.111C596.908,643.713,593.238,646.556,589.674,649.639C554.983,650.140,282.851,646.789,248.157,646.622C249.157,638.595,237.117,624.410,239.123,617.440C239.879,613.159,490.685,621.727,492.597,617.982ZL492.597,617.982Z" style="shape-rendering: geometricprecision; text-rendering: geometricprecision; fill-rule: evenodd; clip-rule: evenodd; fill: rgb(233, 201, 110); fill-opacity: 1;"/></g></g></g><g id="shape-fb17a1f9-5fd0-808c-8004-7fa34ca23ec5" rx="0" ry="0" style="fill: rgb(0, 0, 0);"><g id="shape-fb17a1f9-5fd0-808c-8004-7fa34ca23ed6" style="opacity: 1;"><g class="fills" id="fills-fb17a1f9-5fd0-808c-8004-7fa34ca23ed6"><path d="M573.277,659.670C574.505,660.066,574.705,660.731,573.876,661.665C554.958,672.243,502.735,702.657,449.886,709.660C409.872,714.962,374.776,716.707,338.185,707.659C261.315,688.651,251.067,663.550,268.521,657.637C296.661,648.104,463.266,665.090,464.299,659.618C500.225,659.618,537.352,659.670,573.277,659.670ZL573.277,659.670Z" style="shape-rendering: geometricprecision; text-rendering: geometricprecision; fill-rule: evenodd; clip-rule: evenodd; fill: rgb(233, 201, 110); fill-opacity: 1;"/></g></g></g><g id="shape-fb17a1f9-5fd0-808c-8004-7fa34ca23ec6" rx="0" ry="0" style="fill: rgb(0, 0, 0);"><g id="shape-fb17a1f9-5fd0-808c-8004-7fa34ca23ed7" style="opacity: 1;"><g class="fills" id="fills-fb17a1f9-5fd0-808c-8004-7fa34ca23ed7"><path d="M557.650,552.817C560.653,552.817,563.655,552.817,566.657,552.817C581.815,554.415,597.160,555.419,612.692,555.827C631.369,555.225,650.049,554.891,668.734,554.824C668.891,556.201,668.724,557.540,668.234,558.837C663.621,567.051,658.117,574.576,651.721,581.411C604.518,582.246,269.930,577.352,223.063,576.183C228.974,567.788,172.967,558.459,203.991,553.039C236.001,547.447,357.953,545.998,557.650,552.817ZL557.650,552.817ZL557.650,552.817Z" style="shape-rendering: geometricprecision; text-rendering: geometricprecision; fill-rule: evenodd; clip-rule: evenodd; fill: rgb(233, 201, 110); fill-opacity: 1;"/></g></g></g><g id="shape-fb17a1f9-5fd0-808c-8004-7fa34ca23ec7" rx="0" ry="0" style="fill: rgb(0, 0, 0);"><g id="shape-fb17a1f9-5fd0-808c-8004-7fa34ca23ed8" style="opacity: 1;"><g class="fills" id="fills-fb17a1f9-5fd0-808c-8004-7fa34ca23ed8"><path d="M223.621,584.671C269.643,586.672,598.002,591.610,644.716,590.946C640.757,598.114,635.753,604.636,629.705,610.510C584.672,611.012,272.113,605.532,227.078,605.365C230.076,596.282,219.613,592.644,223.621,584.671ZL223.621,584.671Z" style="shape-rendering: geometricprecision; text-rendering: geometricprecision; fill-rule: evenodd; clip-rule: evenodd; fill: rgb(233, 201, 110); fill-opacity: 1;"/></g></g></g><g id="shape-fb17a1f9-5fd0-808c-8004-7fa34ca23ec8" rx="0" ry="0" style="fill: rgb(0, 0, 0);"><g id="shape-fb17a1f9-5fd0-808c-8004-7fa34ca23ed9" style="opacity: 1;"><g class="fills" id="fills-fb17a1f9-5fd0-808c-8004-7fa34ca23ed9"><path d="M164.399,461.906C190.421,461.739,681.746,460.516,707.763,461.018C708.813,464.174,708.647,467.350,707.263,470.549C706.512,471.177,705.678,471.679,704.761,472.054C681.076,472.723,194.107,469.619,170.422,468.950C167.600,465.647,164.246,466.296,164.399,461.906ZL164.399,461.906Z" style="shape-rendering: geometricprecision; text-rendering: geometricprecision; fill-rule: evenodd; clip-rule: evenodd; fill: rgb(233, 201, 110); fill-opacity: 1;"/></g></g></g><g id="shape-fb17a1f9-5fd0-808c-8004-7fa34ca23ec9" rx="0" ry="0" style="fill: rgb(0, 0, 0);"><g id="shape-fb17a1f9-5fd0-808c-8004-7fa34ca23eda" style="opacity: 1;"><g class="fills" id="fills-fb17a1f9-5fd0-808c-8004-7fa34ca23eda"><path d="M177.448,504.170C176.948,496.645,194.303,485.685,190.497,480.019C190.497,479.350,678.408,481.418,701.759,482.087C702.318,482.814,702.652,483.650,702.760,484.595C701.535,490.858,699.699,496.878,697.255,502.655C696.505,503.283,695.670,503.784,694.754,504.160C674.665,504.339,197.390,503.346,177.448,504.170ZL177.448,504.170Z" style="shape-rendering: geometricprecision; text-rendering: geometricprecision; fill-rule: evenodd; clip-rule: evenodd; fill: rgb(233, 201, 110); fill-opacity: 1;"/></g></g></g><g id="shape-fb17a1f9-5fd0-808c-8004-7fa34ca23eca" rx="0" ry="0" style="fill: rgb(0, 0, 0);"><g id="shape-fb17a1f9-5fd0-808c-8004-7fa34ca23edb" style="opacity: 1;"><g class="fills" id="fills-fb17a1f9-5fd0-808c-8004-7fa34ca23edb"><path d="M195.516,510.207C195.849,510.207,672.563,514.022,691.751,513.691C690.018,517.522,688.517,521.535,687.248,525.731C683.484,533.103,679.315,540.294,674.739,547.302C651.884,548.135,236.096,543.575,213.583,542.408C228.597,535.728,192.515,526.268,195.516,510.207ZL195.516,510.207Z" style="shape-rendering: geometricprecision; text-rendering: geometricprecision; fill-rule: evenodd; clip-rule: evenodd; fill: rgb(233, 201, 110); fill-opacity: 1;"/></g></g></g></g><g id="shape-fb17a1f9-5fd0-808c-8004-7fa34ca23eb9" rx="0" ry="0"><g clip-path="url(#render-39-fb17a1f9-5fd0-808c-8004-7fa34ca23edc-clip)"><g mask="url(#render-39-fb17a1f9-5fd0-808c-8004-7fa34ca23edc-mask)"><defs><filter id="render-39-fb17a1f9-5fd0-808c-8004-7fa34ca23edc-filter"><feFlood flood-color="white" result="FloodResult"/><feComposite in="FloodResult" in2="SourceGraphic" operator="in" result="comp"/></filter><clipPath id="render-39-fb17a1f9-5fd0-808c-8004-7fa34ca23edc-clip" class="mask-clip-path"><polyline points="0,1.1368683772161603e-13 800,1.1368683772161603e-13 800,800 0,800"/></clipPath><mask width="800" maskUnits="userSpaceOnUse" height="799.9999999999999" class="mask-shape" x="0" id="render-39-fb17a1f9-5fd0-808c-8004-7fa34ca23edc-mask" data-old-y="1.1368683772161603e-13" data-old-width="800" data-old-x="0" y="1.1368683772161603e-13" data-old-height="799.9999999999999"><g filter="url(#render-39-fb17a1f9-5fd0-808c-8004-7fa34ca23edc-filter)"><g id="shape-fb17a1f9-5fd0-808c-8004-7fa34ca23edc"><g class="fills" id="fills-fb17a1f9-5fd0-808c-8004-7fa34ca23edc"><ellipse cx="400" cy="400.00000000000006" rx="400" ry="399.99999999999994" transform="matrix(1.000000, 0.000000, 0.000000, 1.000000, 0.000000, 0.000000)" style="fill: rgb(177, 178, 181); fill-opacity: 1;"/></g></g></g></mask></defs><g id="shape-fb17a1f9-5fd0-808c-8004-7fa34ca23edd" rx="0" ry="0"><g id="shape-fb17a1f9-5fd0-808c-8004-7fa34ca23ede"><g class="fills" id="fills-fb17a1f9-5fd0-808c-8004-7fa34ca23ede"><path d="M300.022,35.214C387.676,-5.824,494.664,56.999,545.500,133.872C561.062,157.404,576.305,181.448,586.775,216.833C590.419,229.145,586.607,243.963,584.353,254.471C579.484,277.180,612.493,279.845,624.214,312.295C626.781,319.403,616.306,348.667,618.471,357.329C622.097,371.829,634.343,372.044,630.861,385.892C627.622,398.775,628.508,425.964,627.582,441.369C626.532,458.820,634.385,470.102,636.020,487.058C639.593,524.118,555.989,525.102,518.212,562.104C490.767,588.986,467.263,621.576,464.520,622.310C435.029,630.208,429.169,620.237,391.576,618.794C369.019,617.927,321.390,518.401,305.407,519.942C208.545,529.280,279.207,421.566,199.074,326.996C145.999,264.359,19.434,365.018,40.381,291.748C90.907,115.019,150.468,105.233,300.022,35.214Z" style="fill: rgb(238, 236, 228); fill-opacity: 1;"/></g></g><g id="shape-fb17a1f9-5fd0-808c-8004-7fa34ca23edf"><g class="fills" id="fills-fb17a1f9-5fd0-808c-8004-7fa34ca23edf"><path d="M498.232,789.945C478.836,794.829,458.830,798.321,438.317,800.299C217.745,821.563,21.405,659.751,0.140,439.179C-15.799,273.839,71.132,122.115,208.572,47.542C222.561,41.750,234.166,37.809,240.973,35.794C295.016,19.796,318.321,15.273,365.357,14.282C405.492,13.437,433.704,18.297,461.112,27.226C484.986,35.004,501.983,44.453,523.446,58.511C537.692,67.842,558.596,89.393,565.021,103.893C571.446,118.393,573.790,132.279,574.142,146.356C574.368,155.438,569.781,176.532,569.588,174.534C569.396,172.537,560.939,158.221,554.095,149.809C546.373,140.317,533.370,132.797,519.936,126.383C504.127,118.835,485.575,118.224,478.035,119.335C458.209,122.254,451.010,131.012,443.522,136.773C436.741,141.991,427.517,158.475,423.595,169.941C418.771,184.047,398.492,232.838,379.306,252.831C360.120,272.824,337.142,295.198,331.580,320.933C327.212,341.145,330.995,377.435,330.995,377.435C332.166,389.585,351.803,439.233,350.216,440.813C329.973,460.961,297.212,461.087,323.674,447.921C331.279,444.137,317.730,406.138,315.091,400.729C311.332,393.028,301.043,380.845,290.793,378.810C280.542,376.774,263.546,386.961,261.810,400.232C260.073,413.503,267.301,425.910,274.048,433.323C286.938,447.486,296.891,447.827,314.823,449.551C323.915,450.425,339.032,439.870,349.817,437.106C351.985,436.551,359.327,452.317,374.813,466.951C387.175,478.632,429.694,502.479,441.902,505.841C463.591,511.814,507.316,518.157,514.553,518.996C528.788,520.648,567.734,517.901,587.849,517.978C607.964,518.055,623.647,503.440,623.647,503.440C632.934,495.489,631.521,480.833,630.912,474.516C629.950,464.530,625.999,454.831,628.987,454.543C628.987,454.543,636.538,459.863,640.585,470.560C644.632,481.257,642.896,494.528,642.896,494.528C642.896,494.528,642.155,507.703,630.168,518.938C618.181,530.173,613.104,529.655,597.455,534.187C591.375,535.948,568.151,538.428,560.887,540.737C547.229,545.077,536.239,556.216,525.825,573.347C510.934,597.845,508.482,625.951,506.699,635.669C504.062,650.034,506.906,695.871,506.906,695.871C506.906,695.871,464.235,698.977,394.006,655.604C377.198,645.224,341.727,622.141,308.572,593.284C287.720,575.135,291.791,578.570,268.339,553.843C248.134,532.540,243.461,525.914,243.558,526.915C244.540,537.100,256.374,577.783,269.460,607.315C283.637,639.309,302.028,667.828,322.821,690.121C367.807,738.353,388.877,747.006,424.850,765.204C444.992,775.393,507.676,787.547,506.677,787.643C503.293,787.969,500.575,788.780,498.232,789.945Z" style="fill: rgb(25, 9, 61); fill-opacity: 1;"/></g></g><g id="shape-fb17a1f9-5fd0-808c-8004-7fa34ca23ee0" style="opacity: 1;"><defs><linearGradient id="fill-color-gradient-render-44-0" x1="0.8130211633909687" y1="0.07183076429776955" x2="0.15915048575805035" y2="0.9332317371727581" gradientTransform=""><stop offset="0" stop-color="#c4beae" stop-opacity="1"/><stop offset="1" stop-color="#7d7669" stop-opacity="1"/></linearGradient><pattern patternUnits="userSpaceOnUse" x="63.47216481824398" y="114.57109453148144" width="429.6100406553487" height="185.15158201762551" patternTransform="matrix(0.988869, -0.148792, 0.148530, 0.988908, -27.669896, 43.703101)" id="fill-0-render-44"><g><rect width="429.6100406553487" height="185.15158201762551" style="fill: url(&quot;#fill-color-gradient-render-44-0&quot;);"/></g></pattern></defs><g class="fills" id="fills-fb17a1f9-5fd0-808c-8004-7fa34ca23ee0"><path d="M327.310,233.579C301.232,254.949,273.377,274.011,243.748,290.763C224.238,300.942,203.832,308.915,182.530,314.681C170.413,317.158,158.199,318.996,145.890,320.194C131.481,320.792,117.912,318.095,105.181,312.103C92.668,305.674,81.938,297.157,72.989,286.553C79.773,286.369,86.638,287.133,93.587,288.846C113.486,293.235,139.526,291.307,170.634,282.675C201.109,272.614,229.342,256.081,256.209,238.885C283.616,220.665,309.274,200.463,333.182,178.281C352.845,158.278,372.842,138.601,393.176,119.251C406.841,106.559,422.619,96.995,440.512,90.559C452.481,86.552,464.743,85.034,477.296,86.005C454.899,94.316,436.300,107.573,421.498,125.775C399.619,156.719,375.636,185.820,349.547,213.076C341.655,219.521,334.243,226.356,327.310,233.579ZL327.310,233.579Z" fill="url(#fill-0-render-44)" style="shape-rendering: geometricprecision; text-rendering: geometricprecision; fill-rule: evenodd; clip-rule: evenodd;"/></g></g><g id="shape-fb17a1f9-5fd0-808c-8004-7fa34ca23ee1"><defs><linearGradient id="fill-color-gradient-render-45-0" x1="0.5" y1="0" x2="0.5" y2="1" gradientTransform=""><stop offset="0" stop-color="#09153a" stop-opacity="1"/><stop offset="1" stop-color="#7d7669" stop-opacity="1"/></linearGradient><pattern patternUnits="userSpaceOnUse" x="84.27447870335163" y="368.25479429351935" width="174.45059246346682" height="405.3152223668237" patternTransform="matrix(0.971194, -0.238290, 0.237580, 0.971368, -130.697219, 57.213022)" id="fill-0-render-45"><g><rect width="174.45059246346682" height="405.3152223668237" style="fill: url(&quot;#fill-color-gradient-render-45-0&quot;);"/></g></pattern></defs><g class="fills" id="fills-fb17a1f9-5fd0-808c-8004-7fa34ca23ee1"><path d="M57.748,390.154C57.748,390.154,55.139,464.111,70.774,526.198C79.108,559.290,89.291,594.657,135.166,647.008C175.133,692.616,233.391,727.016,303.683,746.914C311.959,749.256,240.485,709.163,206.455,683.465C163.284,650.864,131.270,617.235,103.064,563.532C69.063,498.796,57.748,390.154,57.748,390.154Z" fill="url(#fill-0-render-45)"/></g></g><g id="shape-fb17a1f9-5fd0-808c-8004-7fa34ca23ee2" rx="0" ry="0" style="fill: rgb(0, 0, 0);"><g id="shape-fb17a1f9-5fd0-808c-8004-7fa34ca23ef0" style="opacity: 1;"><g class="fills" id="fills-fb17a1f9-5fd0-808c-8004-7fa34ca23ef0"><path d="M354.766,530.158C361.834,546.108,369.651,557.036,371.811,560.769C388.347,586.664,407.089,610.729,428.035,632.962C451.244,657.540,467.146,671.462,495.345,689.974C496.680,690.339,505.553,696.160,506.906,695.871C504.962,696.563,497.292,698.602,495.013,698.026C452.929,692.460,425.381,676.178,389.712,652.784C391.412,653.343,367.688,640.175,369.341,639.628C324.695,588.880,327.199,539.921,331.576,471.916C332.167,471.264,332.768,470.534,333.375,469.727C336.159,477.391,338.424,485.237,340.169,493.263C346.352,511.201,348.486,517.156,354.766,530.158ZL354.766,530.158Z" style="shape-rendering: geometricprecision; text-rendering: geometricprecision; fill-rule: evenodd; clip-rule: evenodd; fill: rgb(125, 118, 105); fill-opacity: 1;"/></g></g></g><g id="shape-fb17a1f9-5fd0-808c-8004-7fa34ca23ee3" style="opacity: 1;"><g class="fills" id="fills-fb17a1f9-5fd0-808c-8004-7fa34ca23ee3"><path d="M377.186,255.099C376.441,258.101,375.030,260.592,373.519,265.778C367.343,291.551,367.179,315.926,372.321,341.994C379.844,371.213,392.169,398.248,409.296,423.098C440.422,462.576,480.349,489.134,529.078,502.770C525.822,503.756,522.501,504.076,519.117,503.730C486.571,496.450,456.648,489.276,427.899,472.564C413.044,464.920,404.321,454.988,396.035,445.383C396.319,444.084,381.650,416.923,378.707,413.447C379.006,413.083,371.373,403.508,368.383,399.141C368.535,398.536,365.404,394.387,362.065,386.829C360.254,382.259,359.661,376.100,357.584,371.637C358.002,370.339,353.209,356.033,352.721,351.744C353.354,351.347,345.800,321.651,349.416,312.230C350.056,306.149,351.018,301.238,351.215,295.143C350.721,294.238,355.287,280.151,356.600,277.992C358.582,276.557,354.183,277.989,358.841,274.011C364.192,266.943,371.222,261.221,377.186,255.099ZL377.186,255.099ZM352.721,351.744M368.383,399.141" style="shape-rendering: geometricprecision; text-rendering: geometricprecision; fill-rule: evenodd; clip-rule: evenodd; fill: rgb(218, 211, 190); fill-opacity: 1;"/></g></g><g id="shape-fb17a1f9-5fd0-808c-8004-7fa34ca23ee4" rx="0" ry="0" style="fill: rgb(0, 0, 0);"><g id="shape-fb17a1f9-5fd0-808c-8004-7fa34ca23ef1" style="opacity: 1;"><g class="fills" id="fills-fb17a1f9-5fd0-808c-8004-7fa34ca23ef1"><path d="M631.507,388.572C629.883,392.598,628.957,396.887,628.726,401.439C629.329,403.947,630.649,404.614,632.340,407.642C633.179,409.930,633.823,411.385,633.914,413.538C633.978,414.205,634.042,414.870,634.107,415.536C634.056,420.804,633.210,425.926,631.566,430.900C630.152,433.546,628.732,436.203,627.308,438.870C611.584,443.549,597.868,440.336,586.162,429.229C596.756,426.536,607.617,424.481,618.746,423.064C621.182,421.317,622.285,418.858,622.057,415.690C621.270,412.742,620.483,409.794,619.696,406.846C618.786,406.094,617.875,405.341,616.965,404.589C604.504,405.028,592.266,406.712,580.252,409.640C566.718,411.898,553.105,413.211,539.411,413.577C530.171,413.917,525.108,408.738,527.930,401.407C531.283,399.572,534.103,400.951,536.408,403.283C544.488,403.233,552.425,402.132,560.219,399.980C577.435,392.962,593.553,386.510,611.202,380.710C617.195,380.701,624.430,382.525,631.122,384.577C631.250,385.908,631.905,386.846,631.507,388.572ZL631.507,388.572Z" style="shape-rendering: geometricprecision; text-rendering: geometricprecision; fill-rule: evenodd; clip-rule: evenodd; fill: rgb(9, 21, 58); fill-opacity: 1;"/></g></g></g><g id="shape-fb17a1f9-5fd0-808c-8004-7fa34ca23ee5" rx="0" ry="0" style="fill: rgb(0, 0, 0);"><g id="shape-fb17a1f9-5fd0-808c-8004-7fa34ca23ef2" style="opacity: 1;"><g class="fills" id="fills-fb17a1f9-5fd0-808c-8004-7fa34ca23ef2"><path d="M512.345,214.505C527.677,216.774,535.581,225.755,536.056,241.449C528.733,239.533,521.488,237.376,514.318,234.977C496.082,231.907,478.499,233.770,461.571,240.566C455.700,241.786,450.580,244.295,446.211,248.095C438.591,251.556,431.473,255.938,424.857,261.241C424.343,261.122,423.829,261.005,423.314,260.886C435.371,239.543,453.094,225.235,476.484,217.962C488.330,215.597,500.283,214.445,512.345,214.505ZZ" style="shape-rendering: geometricprecision; text-rendering: geometricprecision; fill-rule: evenodd; clip-rule: evenodd; fill: rgb(9, 21, 58); fill-opacity: 1;"/></g></g></g><g id="shape-fb17a1f9-5fd0-808c-8004-7fa34ca23ee6" rx="0" ry="0" style="fill: rgb(0, 0, 0);"><g id="shape-fb17a1f9-5fd0-808c-8004-7fa34ca23ef3" style="opacity: 1;"><g class="fills" id="fills-fb17a1f9-5fd0-808c-8004-7fa34ca23ef3"><path d="M528.121,263.435C530.327,273.108,531.258,282.762,530.913,292.397C526.221,287.575,522.339,282.069,519.267,275.880C518.919,275.745,518.570,275.612,518.223,275.477C516.407,284.176,511.067,287.883,502.203,286.597C500.564,285.243,498.926,283.889,497.287,282.535C494.124,278.243,491.184,273.823,488.468,269.274C486.257,270.663,484.044,272.052,481.832,273.441C475.125,282.351,467.133,289.842,457.858,295.912C455.721,297.102,453.445,297.826,451.030,298.082C451.807,292.306,453.451,286.772,455.964,281.479C462.513,267.189,472.293,255.662,485.306,246.900C494.302,242.722,503.598,241.826,513.198,244.211C520.869,248.447,525.844,254.856,528.121,263.435ZZ" style="shape-rendering: geometricprecision; text-rendering: geometricprecision; fill-rule: evenodd; clip-rule: evenodd; fill: rgb(9, 21, 58); fill-opacity: 1;"/></g></g></g><g id="shape-fb17a1f9-5fd0-808c-8004-7fa34ca23ee7" rx="0" ry="0" style="fill: rgb(0, 0, 0);"><g id="shape-fb17a1f9-5fd0-808c-8004-7fa34ca23ef4" style="opacity: 1;"><g class="fills" id="fills-fb17a1f9-5fd0-808c-8004-7fa34ca23ef4"><path d="M358.750,274.257C357.437,276.416,353.318,290.908,351.759,295.594C351.311,297.551,348.609,316.989,349.024,324.585C350.338,348.649,360.605,380.713,362.416,385.283C367.010,396.432,379.330,413.215,383.346,418.371C387.411,424.027,395.771,437.344,398.887,443.596C401.963,449.350,414.124,462.632,425.466,470.929C432.125,477.189,439.359,482.708,447.170,487.483C477.673,505.740,510.582,516.847,545.895,520.804C540.161,521.097,534.452,520.975,528.768,520.439C527.772,520.535,526.776,520.631,525.780,520.727C491.782,519.532,458.691,513.482,426.507,502.579C402.556,492.289,381.242,478.049,362.567,459.857C357.547,453.411,353.526,444.727,348.897,437.992C346.520,434.189,340.020,422.385,340.288,421.687C326.416,385.335,322.924,347.369,331.995,309.595C337.316,296.240,347.070,282.700,358.750,274.257ZL358.750,274.257Z" style="shape-rendering: geometricprecision; text-rendering: geometricprecision; fill-rule: evenodd; clip-rule: evenodd; fill: rgb(125, 118, 105); fill-opacity: 1;"/></g></g></g><g id="shape-fb17a1f9-5fd0-808c-8004-7fa34ca23ee8"><g class="fills" id="fills-fb17a1f9-5fd0-808c-8004-7fa34ca23ee8"><path d="M584.942,216.668C584.942,216.668,576.909,218.090,573.469,222.814C569.918,227.692,566.463,233.569,567.329,242.557C568.196,251.545,572.764,263.774,576.596,270.895C581.496,279.998,597.711,294.252,602.846,298.099C614.766,307.029,619.345,307.596,622.124,310.352C625.834,314.031,618.992,320.885,617.704,321.865C613.641,324.958,606.121,324.818,599.709,328.136C590.133,333.091,582.755,343.299,580.427,347.130C579.125,349.271,579.393,353.746,581.245,355.619C583.280,357.675,587.564,356.833,589.263,355.350C591.983,352.975,595.063,347.735,600.253,344.211C606.111,340.233,611.468,340.610,612.705,343.010C614.599,346.686,614.086,346.909,611.933,350.644C611.225,351.873,608.574,357.520,611.563,357.232C614.551,356.944,615.193,358.394,618.037,356.608C621.095,354.688,622.985,352.262,625.831,348.801C627.630,346.611,629.294,343.018,630.089,340.830C631.330,337.418,631.440,336.078,631.930,334.802C632.733,332.709,633.123,332.342,633.945,329.553C634.842,326.511,634.566,327.715,635.474,323.680C636.831,317.649,636.731,318.912,637.137,315.598C637.702,310.994,637.703,310.987,637.960,308.442C638.162,306.446,635.334,302.124,633.739,301.267C629.970,299.242,624.263,296.034,619.395,292.472C613.956,288.491,605.467,281.882,602.013,279.028C597.643,275.417,591.174,270.422,592.390,267.860C593.644,265.219,599.139,259.650,601.035,258.459C602.931,257.268,605.792,250.441,604.651,249.039C604.335,248.650,603.751,250.134,599.509,253.062C597.179,254.672,590.929,257.921,590.929,257.921C590.929,257.921,594.931,252.496,597.630,249.212C600.330,245.928,602.627,243.690,603.431,241.597C604.235,239.503,600.949,240.214,599.398,241.482C596.603,243.767,594.353,246.504,591.461,247.791C588.569,249.077,589.517,248.482,589.630,244.439C589.742,240.428,590.885,241.821,590.354,236.306C589.824,230.813,591.078,228.172,590.692,224.178C590.307,220.183,584.942,216.668,584.942,216.668Z" style="fill: rgb(9, 21, 58); fill-opacity: 1;"/></g></g><g id="shape-fb17a1f9-5fd0-808c-8004-7fa34ca23ee9"><g class="fills" id="fills-fb17a1f9-5fd0-808c-8004-7fa34ca23ee9"><path d="M391.569,268.573C391.569,268.573,387.032,315.376,393.616,341.956C399.690,366.477,421.982,406.755,419.797,404.950C411.586,398.165,399.489,372.666,394.257,359.030C387.543,341.534,384.236,317.662,385.588,300.396C386.453,289.349,391.569,268.573,391.569,268.573Z" style="fill: rgb(205, 197, 176); fill-opacity: 1;"/></g></g><g id="shape-fb17a1f9-5fd0-808c-8004-7fa34ca23eea"><defs><linearGradient id="fill-color-gradient-render-59-0" x1="0.5" y1="0" x2="0.5" y2="1" gradientTransform=""><stop offset="0" stop-color="#09153a" stop-opacity="1"/><stop offset="1" stop-color="#7d7669" stop-opacity="1"/></linearGradient><pattern patternUnits="userSpaceOnUse" x="210.9846875559906" y="345.0967983361571" width="169.12735372389398" height="320.054052542382" patternTransform="matrix(0.995385, -0.095960, 0.095960, 0.995385, -47.107553, 30.691705)" id="fill-0-render-59"><g><rect width="169.12735372389398" height="320.054052542382" style="fill: url(&quot;#fill-color-gradient-render-59-0&quot;);"/></g></pattern></defs><g class="fills" id="fills-fb17a1f9-5fd0-808c-8004-7fa34ca23eea"><path d="M395.078,656.298C395.078,656.298,346.914,629.735,301.547,586.735C276.468,562.963,260.550,547.345,242.012,521.917C215.023,484.896,200.442,445.288,203.626,415.751C203.626,415.751,210.697,360.285,217.580,351.912C219.380,349.723,214.979,423.122,232.540,465.377C243.012,490.574,252.002,504.474,274.626,536.916C315.459,595.473,395.078,656.298,395.078,656.298Z" fill="url(#fill-0-render-59)"/></g></g><g id="shape-fb17a1f9-5fd0-808c-8004-7fa34ca23eeb"><defs><linearGradient id="fill-color-gradient-render-60-0" x1="0.5" y1="0" x2="0.5" y2="1" gradientTransform=""><stop offset="0" stop-color="#09153a" stop-opacity="1"/><stop offset="1" stop-color="#7d7669" stop-opacity="1"/></linearGradient><pattern patternUnits="userSpaceOnUse" x="114.03975331400397" y="354.5278863156726" width="135.5286269553635" height="279.69718401921784" patternTransform="matrix(0.987163, 0.159719, -0.158511, 0.987357, 80.698013, -22.787271)" id="fill-0-render-60"><g><rect width="135.5286269553635" height="279.69718401921784" style="fill: url(&quot;#fill-color-gradient-render-60-0&quot;);"/></g></pattern></defs><g class="fills" id="fills-fb17a1f9-5fd0-808c-8004-7fa34ca23eeb"><path d="M148.866,415.480C152.034,395.748,155.544,365.415,161.521,353.596C167.498,341.777,148.758,356.859,134.977,383.398C121.197,409.938,118.146,479.768,130.368,522.235C142.589,564.702,166.265,586.647,178.845,601.468C197.711,623.696,226.531,643.280,226.531,643.280C226.531,643.280,180.035,571.077,166.982,531.356C151.451,484.091,145.698,435.212,148.866,415.480Z" fill="url(#fill-0-render-60)"/></g></g><g id="shape-fb17a1f9-5fd0-808c-8004-7fa34ca23eec"><defs><linearGradient id="fill-color-gradient-render-61-0" x1="0.9620120220782526" y1="0.29346308156381923" x2="0.011841748107687176" y2="0.8985416708295375" gradientTransform=""><stop offset="0" stop-color="#d7cdb7" stop-opacity="1"/><stop offset="1" stop-color="#071338" stop-opacity="1"/></linearGradient><pattern patternUnits="userSpaceOnUse" x="53.00273555986314" y="18.336528697897506" width="519.3859515335116" height="223.9012328287613" patternTransform="matrix(0.995385, -0.095960, 0.095960, 0.995385, -11.059275, 30.607374)" id="fill-0-render-61"><g><rect width="519.3859515335116" height="223.9012328287613" style="fill: url(&quot;#fill-color-gradient-render-61-0&quot;);"/></g></pattern></defs><g class="fills" id="fills-fb17a1f9-5fd0-808c-8004-7fa34ca23eec"><path d="M573.751,152.734C573.751,152.734,563.804,112.794,548.507,97.006C530.643,78.569,525.278,75.055,501.500,68.275C477.722,61.496,456.804,63.513,436.270,69.524C415.736,75.535,364.544,107.685,341.759,132.057C318.974,156.429,278.225,192.612,265.949,200.851C253.673,209.090,210.546,241.470,177.352,251.726C145.665,261.516,119.157,263.384,95.798,250.517C72.439,237.649,62.930,222.439,60.552,218.636C58.175,214.833,70.480,227.758,85.711,229.314C100.942,230.870,152.130,229.967,188.346,209.340C224.563,188.713,284.176,139.624,287.775,135.245C291.375,130.867,356.194,73.212,383.926,58.443C407.121,46.091,426.216,38.239,431.100,36.760C435.985,35.281,395.599,39.616,373.517,44.327C339.037,51.683,287.138,86.925,249.507,113.736C211.876,140.546,209.369,145.828,191.213,155.642C173.056,165.456,136.551,183.087,135.555,183.183C134.559,183.279,160.722,131.367,194.753,108.935C225.596,88.605,247.874,65.511,273.904,53.930C299.933,42.349,283.128,34.898,281.040,34.091C271.699,30.484,256.526,30.263,240.973,35.794C225.420,41.325,269.708,23.292,318.637,17.363C357.434,12.662,405.686,13.003,430.267,17.689C454.848,22.375,486.980,32.381,512.717,49.051C538.453,65.721,559.286,88.050,567.400,105.264C576.582,124.742,573.751,152.734,573.751,152.734Z" fill="url(#fill-0-render-61)"/></g></g></g></g></g></g></g></g></g></g></svg>