<?xml version="1.0" standalone="no"?>
<!DOCTYPE svg PUBLIC "-//W3C//DTD SVG 20010904//EN"
 "http://www.w3.org/TR/2001/REC-SVG-20010904/DTD/svg10.dtd">
<svg version="1.0" xmlns="http://www.w3.org/2000/svg"
 width="822.000000pt" height="822.000000pt" viewBox="0 0 822.000000 822.000000"
 preserveAspectRatio="xMidYMid meet">
<metadata>
Created by potrace 1.14, written by Peter Selinger 2001-2017
</metadata>
<g transform="translate(0.000000,822.000000) scale(0.100000,-0.100000)"
fill="#000000" stroke="none">
<path d="M3875 8213 c-793 -65 -1459 -303 -2073 -741 -198 -142 -308 -236
-513 -441 -513 -514 -847 -1095 -1038 -1803 -133 -494 -166 -1080 -90 -1603
204 -1414 1161 -2624 2494 -3153 324 -129 626 -207 985 -254 222 -30 762 -32
962 -5 179 24 515 98 693 153 305 93 696 269 943 424 634 399 1147 962 1477
1620 522 1042 564 2281 112 3354 -307 730 -829 1357 -1502 1803 -647 428
-1416 656 -2195 651 -118 -1 -233 -3 -255 -5z m460 -149 c311 -31 516 -81 771
-189 248 -106 459 -243 689 -447 241 -214 625 -578 625 -593 0 -21 -25 -25
-155 -25 -127 0 -138 3 -147 45 -3 11 -3 -16 0 -60 5 -70 3 -79 -10 -68 -8 7
-18 9 -22 5 -4 -4 -6 -2 -4 3 1 6 -1 11 -6 12 -11 2 -26 36 -56 123 -35 100
-74 171 -139 253 -102 126 -173 184 -296 243 -202 96 -321 126 -507 128 -68 1
-116 5 -115 11 1 5 -5 10 -13 10 -8 0 -14 7 -12 14 1 7 -2 10 -7 7 -5 -3 -14
1 -21 9 -7 8 -16 13 -20 10 -4 -3 -13 2 -20 10 -7 8 -16 12 -21 9 -5 -3 -8 0
-7 7 2 7 -4 14 -12 14 -8 0 -14 7 -12 14 1 7 -2 10 -7 7 -5 -3 -14 1 -21 9 -7
8 -16 13 -20 10 -4 -3 -13 2 -20 10 -7 8 -16 12 -21 9 -5 -3 -8 0 -7 8 2 7 -3
12 -10 10 -6 -1 -11 1 -10 5 2 5 0 8 -3 8 -4 0 -16 9 -28 19 -12 11 -21 16
-21 11 0 -4 -7 -2 -16 6 -14 11 -13 14 8 24 13 7 53 20 91 31 37 10 67 23 67
28 0 5 -58 6 -143 2 -135 -6 -144 -5 -162 14 -10 11 -22 17 -27 14 -4 -3 -7
-2 -6 3 2 4 0 8 -3 8 -4 0 -17 9 -29 20 -12 11 -25 20 -29 20 -3 0 -5 4 -3 8
1 5 -2 6 -7 3 -5 -3 -14 1 -21 9 -7 8 -16 12 -21 9 -5 -3 -8 0 -7 8 2 7 -2 12
-9 11 -6 -1 -17 4 -23 12 -7 8 -18 15 -25 15 -6 0 -20 9 -30 20 -10 11 -22 17
-27 14 -4 -3 -7 -1 -6 4 2 6 -1 10 -5 10 -5 0 -22 13 -38 28 -16 15 -29 24
-29 19 0 -4 -8 -1 -18 8 -10 10 -22 14 -27 10 -4 -5 -6 -3 -2 3 6 11 3 11 232
-12z m829 -802 c3 -5 -19 -16 -49 -26 -200 -63 -402 -198 -553 -369 -61 -69
-86 -85 -98 -66 -3 5 -9 7 -14 4 -5 -3 -12 0 -16 6 -5 8 -3 9 6 4 8 -5 11 -4
7 3 -4 5 -16 8 -27 5 -11 -3 -26 0 -34 6 -10 8 -16 9 -21 1 -3 -6 -12 -7 -18
-3 -7 4 -15 8 -19 8 -3 0 -10 4 -15 9 -5 5 -2 6 6 1 9 -5 12 -4 8 2 -4 6 -20
9 -37 8 -17 -1 -33 2 -37 8 -4 6 -1 7 8 2 8 -5 10 -4 6 0 -10 11 -39 16 -33 6
3 -4 -5 -7 -17 -6 -23 3 -25 21 -3 39 182 149 302 226 443 283 148 60 252 82
385 83 64 0 119 -4 122 -8z m123 -342 c145 -20 254 -64 410 -169 136 -91 210
-176 287 -333 l64 -129 12 35 11 35 87 -5 c85 -5 225 -15 511 -38 l145 -11 62
-110 c34 -60 65 -125 69 -143 l7 -33 -404 1 c-221 0 -406 1 -410 0 -3 0 0 -24
7 -52 7 -29 16 -65 19 -80 l6 -28 429 0 c472 0 447 4 458 -64 l6 -36 -239 0
c-372 0 -614 10 -614 26 0 8 -13 28 -28 45 -27 30 -29 31 -69 20 -23 -6 -55
-22 -71 -35 -38 -32 -79 -111 -87 -166 -14 -100 39 -298 109 -402 62 -92 199
-233 295 -304 86 -62 95 -81 63 -120 -29 -36 -67 -54 -133 -65 -97 -15 -174
-57 -252 -138 -72 -74 -83 -107 -50 -143 27 -30 59 -22 117 32 69 62 104 80
156 80 34 0 42 -4 50 -25 8 -21 5 -33 -16 -65 -34 -51 -27 -70 27 -70 37 0 48
6 94 53 29 28 56 59 61 68 8 14 26 15 144 8 74 -4 253 -9 397 -10 257 -2 261
-2 267 -23 3 -11 6 -80 6 -153 l0 -131 -37 -6 c-21 -3 -162 -8 -313 -11 -151
-3 -321 -8 -377 -11 l-103 -6 0 -29 c0 -34 0 -34 -72 -9 -98 34 -123 34 -257
0 -68 -17 -185 -49 -260 -71 -113 -34 -156 -42 -252 -46 -98 -5 -120 -3 -142
11 -40 27 -71 18 -75 -21 -4 -43 13 -72 51 -88 48 -19 283 -28 432 -15 72 6
191 13 265 17 159 7 165 3 176 -89 6 -48 4 -58 -15 -77 -17 -17 -33 -21 -81
-21 -81 0 -260 -21 -260 -31 0 -15 91 -87 138 -110 64 -30 204 -38 705 -38
l397 -1 0 -31 c0 -17 -5 -39 -10 -50 -10 -18 -26 -19 -425 -19 l-415 0 -1 -27
c-1 -16 -2 -102 -3 -193 -1 -189 -12 -228 -81 -289 -51 -44 -157 -94 -235
-111 -63 -13 -263 -6 -591 20 -225 19 -597 175 -874 368 -102 71 -328 292
-409 399 -34 45 -79 121 -100 170 -21 48 -81 163 -133 254 -51 91 -109 204
-128 251 -64 157 -115 548 -95 717 15 119 37 213 71 299 58 146 68 160 207
275 71 59 150 131 174 160 127 149 278 387 409 644 43 84 96 178 117 210 99
145 267 256 425 282 73 12 86 12 174 1z m1090 -244 c116 -10 170 -18 188 -30
32 -21 124 -145 125 -168 0 -17 -21 -18 -296 -18 l-296 0 7 28 c5 20 21 152
25 200 0 5 92 1 247 -12z m773 -1133 c12 -26 24 -62 27 -80 l6 -33 -447 0
-446 0 20 37 c10 20 17 40 15 44 -3 4 -29 -6 -58 -22 -28 -16 -56 -29 -61 -29
-5 0 17 29 50 64 l59 64 406 1 407 1 22 -47z m60 -292 c5 -11 10 -36 10 -55
l0 -36 -443 0 -443 0 -54 55 -54 55 486 0 c472 0 488 -1 498 -19z m19 -219
c15 -28 51 -227 51 -282 l0 -48 -82 -6 c-92 -6 -658 -16 -658 -12 0 2 9 28 19
58 10 31 24 81 31 111 15 72 1 99 -74 151 -31 21 -56 40 -56 42 0 2 171 4 380
4 354 0 380 -1 389 -18z m-4134 -516 c47 -20 124 -99 162 -166 65 -114 124
-435 93 -514 -6 -18 -19 -27 -44 -32 -44 -8 -180 16 -259 46 -159 60 -287 247
-287 419 1 114 54 190 166 236 68 28 120 31 169 11z m4113 -423 l82 -6 0 -42
c0 -23 -3 -56 -6 -72 l-6 -30 -415 -7 c-309 -5 -419 -4 -429 5 -19 15 -18 54
3 112 l17 47 335 0 c185 0 373 -3 419 -7z m52 -287 c0 -18 -5 -47 -10 -63
l-11 -30 -400 -7 c-220 -4 -403 -6 -405 -4 -2 3 3 35 12 71 l17 67 398 0 399
0 0 -34z m-114 -429 c11 -10 -10 -105 -35 -162 l-20 -45 -304 0 -304 0 -6 55
c-3 30 -17 80 -31 111 l-26 56 359 -3 c198 -2 363 -8 367 -12z m-4543 -595
c-47 -2 -87 -1 -90 1 -5 6 -39 197 -46 259 l-4 46 113 -151 113 -152 -86 -3z
m4437 284 c0 -2 -12 -35 -26 -72 -27 -72 -67 -149 -116 -221 l-29 -43 -147 1
c-81 1 -225 4 -321 8 l-174 6 50 32 c28 18 69 53 92 78 45 49 101 155 101 193
l0 22 285 0 c157 0 285 -2 285 -4z m-4253 -403 c21 -27 71 -87 111 -135 l73
-88 -189 0 c-188 0 -190 0 -196 23 -25 89 -55 230 -50 238 3 5 52 9 109 9
l104 0 38 -47z m3636 -8 c385 0 387 0 387 -21 0 -21 -72 -132 -132 -204 l-33
-39 -690 6 c-379 3 -692 7 -693 8 -7 6 135 143 179 173 110 74 223 95 454 84
77 -4 314 -7 528 -7z m-3261 -413 l98 -97 -283 3 c-155 2 -285 7 -289 10 -6 7
-68 178 -68 189 0 3 100 2 223 -2 l222 -7 97 -96z m3408 50 c0 -8 -40 -64 -88
-125 l-53 -67 -657 6 c-361 3 -662 7 -669 9 -15 5 1 48 49 132 l31 55 693 -4
c382 -1 694 -4 694 -6z m-3090 -344 c58 -50 140 -118 183 -151 42 -33 75 -62
73 -64 -2 -2 -198 -1 -435 3 l-431 7 -54 111 c-30 61 -61 128 -70 149 l-15 37
322 0 322 -1 105 -91z m2698 53 l143 -1 -12 -22 c-13 -24 -171 -178 -239 -232
l-45 -37 -523 2 c-287 1 -525 5 -528 10 -5 9 27 142 56 234 l20 60 492 -6
c271 -4 557 -7 636 -8z m-2573 -352 c250 -11 261 -12 295 -36 19 -13 93 -66
163 -117 216 -156 440 -266 675 -331 48 -13 84 -24 80 -24 -4 -1 -63 -10 -130
-21 -206 -32 -426 -51 -614 -51 -272 0 -443 24 -699 98 -136 39 -120 25 -263
213 -77 101 -182 253 -182 265 0 16 347 18 675 4z m2265 -48 c0 -11 -174 -108
-347 -195 -182 -91 -585 -248 -599 -233 -4 4 12 272 22 375 l6 62 459 0 c276
0 459 -4 459 -9z"/>
<path d="M5045 5945 c-120 -26 -265 -97 -370 -182 -59 -48 -179 -182 -171
-191 5 -4 161 68 266 123 25 13 97 36 160 51 93 22 139 27 240 28 150 0 209
-12 358 -72 62 -25 115 -42 119 -38 14 13 -16 138 -42 177 -32 50 -101 94
-166 108 -68 15 -321 12 -394 -4z"/>
<path d="M5178 5669 c-147 -34 -377 -281 -427 -457 -9 -30 -8 -32 15 -32 50 0
161 70 270 171 53 49 100 78 108 67 1 -1 19 -32 38 -68 48 -87 79 -115 127
-115 51 0 85 20 107 61 10 19 21 34 24 34 3 0 15 -24 28 -54 13 -29 36 -68 51
-87 l28 -33 7 79 c19 241 -53 404 -193 434 -60 13 -130 13 -183 0z"/>
</g>
</svg>
